<svg height="1054" width="720" xmlns="http://www.w3.org/2000/svg">
<rect height="1054" fill="#555" width="720"></rect>
<text fill="#7f7" font-family="Courier New" font-size="12" xml:space="preserve">
<tspan x="10" y="26">15 megabytes installed</tspan>
<tspan x="10" y="42"></tspan>
<tspan x="10" y="58">node_modules</tspan>
<tspan x="10" y="74">└─┬ bem@2.0.0 </tspan>
<tspan x="10" y="90">  ├─┬ bem-tools-core@0.0.3 </tspan>
<tspan x="10" y="106">  │ ├─┬ coa@1.0.1 </tspan>
<tspan x="10" y="122">  │ │ └── q@1.5.0 </tspan>
<tspan x="10" y="138">  │ └─┬ global-modules@0.2.3 </tspan>
<tspan x="10" y="154">  │   ├─┬ global-prefix@0.1.5 </tspan>
<tspan x="10" y="170">  │   │ ├─┬ homedir-polyfill@1.0.1 </tspan>
<tspan x="10" y="186">  │   │ │ └── parse-passwd@1.0.0 </tspan>
<tspan x="10" y="202">  │   │ ├── ini@1.3.4 </tspan>
<tspan x="10" y="218">  │   │ └─┬ which@1.2.14 </tspan>
<tspan x="10" y="234">  │   │   └── isexe@2.0.0 </tspan>
<tspan x="10" y="250">  │   └── is-windows@0.2.0 </tspan>
<tspan x="10" y="266">  └─┬ bem-tools-create@1.1.0 </tspan>
<tspan x="10" y="282">    ├─┬ bem-config@3.2.3 </tspan>
<tspan x="10" y="298">    │ ├── betterc@1.3.0 </tspan>
<tspan x="10" y="314">    │ ├── es6-object-assign@1.1.0 </tspan>
<tspan x="10" y="330">    │ ├─┬ glob@7.1.1 </tspan>
<tspan x="10" y="346">    │ │ ├── fs.realpath@1.0.0 </tspan>
<tspan x="10" y="362">    │ │ ├─┬ inflight@1.0.6 </tspan>
<tspan x="10" y="378">    │ │ │ └── wrappy@1.0.2 </tspan>
<tspan x="10" y="394">    │ │ ├── inherits@2.0.3 </tspan>
<tspan x="10" y="410">    │ │ ├── minimatch@3.0.3 </tspan>
<tspan x="10" y="426">    │ │ ├── once@1.4.0 </tspan>
<tspan x="10" y="442">    │ │ └── path-is-absolute@1.0.1 </tspan>
<tspan x="10" y="458">    │ ├─┬ is-glob@3.1.0 </tspan>
<tspan x="10" y="474">    │ │ └── is-extglob@2.1.1 </tspan>
<tspan x="10" y="490">    │ ├─┬ jsonpath@0.2.11 </tspan>
<tspan x="10" y="506">    │ │ ├── esprima@1.2.2 </tspan>
<tspan x="10" y="522">    │ │ ├─┬ jison@0.4.13 </tspan>
<tspan x="10" y="538">    │ │ │ ├── cjson@0.2.1 </tspan>
<tspan x="10" y="554">    │ │ │ ├── ebnf-parser@0.1.10 </tspan>
<tspan x="10" y="570">    │ │ │ ├─┬ escodegen@0.0.21 </tspan>
<tspan x="10" y="586">    │ │ │ │ ├── esprima@1.0.4 </tspan>
<tspan x="10" y="602">    │ │ │ │ ├── estraverse@0.0.4 </tspan>
<tspan x="10" y="618">    │ │ │ │ └── source-map@0.5.6 </tspan>
<tspan x="10" y="634">    │ │ │ ├── esprima@1.0.4 </tspan>
<tspan x="10" y="650">    │ │ │ ├── jison-lex@0.2.1 </tspan>
<tspan x="10" y="666">    │ │ │ ├── JSONSelect@0.4.0 </tspan>
<tspan x="10" y="682">    │ │ │ ├── lex-parser@0.1.4 </tspan>
<tspan x="10" y="698">    │ │ │ └─┬ nomnom@1.5.2 </tspan>
<tspan x="10" y="714">    │ │ │   ├── colors@0.5.1 </tspan>
<tspan x="10" y="730">    │ │ │   └── underscore@1.1.7 </tspan>
<tspan x="10" y="746">    │ │ ├─┬ static-eval@0.2.3 </tspan>
<tspan x="10" y="762">    │ │ │ └─┬ escodegen@0.0.28 </tspan>
<tspan x="10" y="778">    │ │ │   ├── esprima@1.0.4 </tspan>
<tspan x="10" y="794">    │ │ │   └── estraverse@1.3.2 </tspan>
<tspan x="10" y="810">    │ │ └── underscore@1.7.0 </tspan>
<tspan x="10" y="826">    │ ├── lodash@4.17.4 </tspan>
<tspan x="10" y="842">    │ ├── minimist@1.2.0 </tspan>
<tspan x="10" y="858">    │ ├── node-eval@1.1.0 </tspan>
<tspan x="10" y="874">    │ └── os-homedir@1.0.2 </tspan>
<tspan x="10" y="890">    ├── bem-fs-scheme@1.0.0 </tspan>
<tspan x="10" y="906">    ├── bem-naming@1.0.1 </tspan>
<tspan x="10" y="922">    ├─┬ brace-expansion@1.1.7 </tspan>
<tspan x="10" y="938">    │ ├── balanced-match@0.4.2 </tspan>
<tspan x="10" y="954">    │ └── concat-map@0.0.1 </tspan>
<tspan x="10" y="970">    ├─┬ mkdirp@0.5.1 </tspan>
<tspan x="10" y="986">    │ └── minimist@0.0.8 </tspan>
<tspan x="10" y="1002">    ├─┬ pinkie-promise@2.0.1 </tspan>
<tspan x="10" y="1018">    │ └── pinkie@2.0.4 </tspan>
<tspan x="10" y="1034">    └── uniq@1.0.1</tspan>
</text>
</svg>
